# xmcd
#
# Track frame offsets: 
#        150
#        33567
#        70162
#        87843
#        110443
#        134356
#        150568
#        170219
#        200258
#
# Disc length: 2884 seconds
#
# Revision: 4
# Processed by: cddbd v1.5.2PL0 Copyright (c) Steve Scherf et al.
# Submitted via: ExactAudioCopy v1.0b1
#
DISCID=770b4209
DTITLE=Stevie Wonder - Music Of My Mind (AF HDCD - Gold)
DYEAR=1972
DGENRE=R&B
TTITLE0=Love Having You Around
TTITLE1=Superwoman
TTITLE2=I Love Every Little Thing About You
TTITLE3=Sweet Little Girl
TTITLE4=Happier Than The Morning Sun
TTITLE5=Girl Blue
TTITLE6=Seems So Long
TTITLE7=Keep On Running
TTITLE8=Evil
EXTD=YEAR: 1972
EXTT0=
EXTT1=
EXTT2=
EXTT3=
EXTT4=
EXTT5=
EXTT6=
EXTT7=
EXTT8=
PLAYORDER=
